<?xml version="1.0" encoding="iso-8859-1"?>
<!-- Uploaded to: SVG Repo, www.svgrepo.com, Generator: SVG Repo Mixer Tools -->
<!DOCTYPE svg PUBLIC "-//W3C//DTD SVG 1.1//EN" "http://www.w3.org/Graphics/SVG/1.1/DTD/svg11.dtd">
<svg fill="#fff" height="800px" width="800px" version="1.1" id="Capa_1" xmlns="http://www.w3.org/2000/svg" xmlns:xlink="http://www.w3.org/1999/xlink" 
	 viewBox="0 0 297 297" xml:space="preserve">
<g>
	<path d="M266.445,244.439c16.848,0,30.555-13.707,30.555-30.555s-13.707-30.555-30.555-30.555h-0.99v-24.75v-16.015v-9.531
		c0-5.477-2.133-10.626-6.006-14.499l-2.244-2.244v-9.152c0-2.68-2.172-4.853-4.853-4.853h-15.529c-2.68,0-4.853,2.172-4.853,4.853
		v9.152l-2.244,2.244c-3.874,3.873-6.006,9.022-6.006,14.499v9.531v16.015v24.75h-22.324v-24.75v-16.015v-9.531
		c0-5.477-2.133-10.626-6.006-14.499l-2.244-2.244v-9.152c0-2.68-2.172-4.853-4.853-4.853h-15.529c-2.68,0-4.853,2.172-4.853,4.853
		v9.152l-2.244,2.244c-3.874,3.873-6.006,9.022-6.006,14.499v9.531v16.015v24.75h-51.926v-49.684
		c17.965-1.829,32.029-17.045,32.029-35.485V78.506c0-19.668-16.001-35.669-35.669-35.669H82.015v-9.624
		c0-6.333,5.152-11.486,11.485-11.486h90.588c6.333,0,11.486,5.152,11.486,11.486v26.264l-21.89,21.889
		c-2.843,2.844-2.843,7.452,0,10.295c1.422,1.421,3.285,2.132,5.148,2.132s3.726-0.711,5.148-2.132l24.022-24.022
		c1.365-1.366,2.132-3.217,2.132-5.148V33.213c0-14.361-11.684-26.045-26.045-26.045H93.5c-14.361,0-26.044,11.684-26.044,26.045
		v9.624H48.772c-19.668,0-35.669,16.001-35.669,35.669v19.654c0,18.439,14.065,33.656,32.029,35.485v49.684H30.555
		C13.707,183.33,0,197.037,0,213.884s13.707,30.555,30.555,30.555h8.552v30.834H32.96c-4.021,0-7.279,3.259-7.279,7.279
		c0,4.021,3.259,7.279,7.279,7.279h26.852c4.021,0,7.279-3.259,7.279-7.279c0-4.021-3.259-7.279-7.279-7.279h-6.147v-30.834h189.668
		v30.834h-6.147c-4.021,0-7.279,3.259-7.279,7.279c0,4.021,3.259,7.279,7.279,7.279h26.852c4.021,0,7.279-3.259,7.279-7.279
		c0-4.021-3.259-7.279-7.279-7.279h-6.147v-30.834H266.445z M241.676,111.992h5.824v1.941h-5.824V111.992z M233.426,133.034
		c0-2.884,1.123-5.596,3.163-7.637l1.758-1.758h12.481l1.758,1.758c2.04,2.041,3.163,4.752,3.163,7.637v4.679h-22.324V133.034z
		 M233.426,147.418h22.324v6.309h-22.324V147.418z M233.426,163.433h22.324v19.897h-22.324V163.433z M177.618,111.992h5.824v1.941
		h-5.824V111.992z M169.368,133.034c0-2.884,1.123-5.596,3.163-7.637l1.758-1.758h12.481l1.758,1.758
		c2.04,2.041,3.163,4.752,3.163,7.637v4.679h-22.324V133.034z M169.368,147.418h22.324v6.309h-22.324V147.418z M169.368,163.433
		h22.324v19.897h-22.324V163.433z M59.691,133.83h33.485V151.3H59.691V133.83z M27.662,98.161V78.506
		c0-11.64,9.47-21.11,21.11-21.11h55.324c11.64,0,21.11,9.47,21.11,21.11v19.654c0,11.64-9.47,21.11-21.11,21.11H48.772
		C37.132,119.271,27.662,109.801,27.662,98.161z M59.691,165.859h33.485v17.471H59.691V165.859z M14.559,213.884
		c0-8.82,7.176-15.996,15.996-15.996h235.891c8.82,0,15.996,7.176,15.996,15.996c0,8.82-7.176,15.996-15.996,15.996H30.555
		C21.735,229.88,14.559,222.704,14.559,213.884z"/>
	<path d="M83.253,203.249c-5.865,0-10.637,4.771-10.637,10.636c0,5.865,4.771,10.637,10.637,10.637
		c5.864,0,10.636-4.771,10.636-10.637C93.888,208.02,89.117,203.249,83.253,203.249z M83.253,217.807
		c-2.163,0-3.923-1.76-3.923-3.923c0-2.163,1.76-3.922,3.923-3.922s3.922,1.759,3.922,3.922
		C87.175,216.047,85.416,217.807,83.253,217.807z"/>
	<path d="M39.753,203.249c-5.864,0-10.636,4.771-10.636,10.636c0,5.865,4.771,10.637,10.636,10.637
		c5.865,0,10.637-4.771,10.637-10.637C50.39,208.02,45.619,203.249,39.753,203.249z M39.753,217.807
		c-2.163,0-3.922-1.76-3.922-3.923c0-2.163,1.759-3.922,3.922-3.922s3.923,1.759,3.923,3.922
		C43.676,216.047,41.916,217.807,39.753,217.807z"/>
	<path d="M126.751,203.249c-5.864,0-10.636,4.771-10.636,10.636c0,5.865,4.771,10.637,10.636,10.637
		c5.864,0,10.636-4.771,10.636-10.637C137.387,208.02,132.615,203.249,126.751,203.249z M126.751,217.807
		c-2.163,0-3.923-1.76-3.923-3.923c0-2.163,1.76-3.922,3.923-3.922s3.923,1.759,3.923,3.922
		C130.674,216.047,128.914,217.807,126.751,217.807z"/>
	<path d="M213.747,203.249c-5.864,0-10.636,4.771-10.636,10.636c0,5.865,4.771,10.637,10.636,10.637
		c5.865,0,10.637-4.771,10.637-10.637C224.384,208.02,219.613,203.249,213.747,203.249z M213.747,217.807
		c-2.163,0-3.922-1.76-3.922-3.923c0-2.163,1.759-3.922,3.922-3.922c2.163,0,3.923,1.759,3.923,3.922
		C217.671,216.047,215.91,217.807,213.747,217.807z"/>
	<path d="M257.247,203.249c-5.865,0-10.637,4.771-10.637,10.636c0,5.865,4.771,10.637,10.637,10.637
		c5.864,0,10.636-4.771,10.636-10.637C267.882,208.02,263.111,203.249,257.247,203.249z M257.247,217.807
		c-2.163,0-3.923-1.76-3.923-3.923c0-2.163,1.76-3.922,3.923-3.922c2.163,0,3.922,1.759,3.922,3.922
		C261.169,216.047,259.41,217.807,257.247,217.807z"/>
	<path d="M170.249,203.249c-5.864,0-10.636,4.771-10.636,10.636c0,5.865,4.771,10.637,10.636,10.637
		c5.864,0,10.636-4.771,10.636-10.637C180.885,208.02,176.113,203.249,170.249,203.249z M170.249,217.807
		c-2.163,0-3.923-1.76-3.923-3.923c0-2.163,1.76-3.922,3.923-3.922c2.163,0,3.923,1.759,3.923,3.922
		C174.172,216.047,172.412,217.807,170.249,217.807z"/>
</g>
</svg>