<?xml version="1.0" encoding="utf-8"?><!-- Uploaded to: SVG Repo, www.svgrepo.com, Generator: SVG Repo Mixer Tools -->
<svg width="800px" height="800px" viewBox="0 0 24 24" id="Layer_1" data-name="Layer 1" xmlns="http://www.w3.org/2000/svg">
<!-- <defs><style>.cls-1{fill:none;stroke:white;stroke-miterlimit:10;stroke-width:1.6px;}</style></defs>  -->
<defs><style>.cls-1{fill:none;stroke-miterlimit:10;stroke-width:1.6px;}</style></defs> 
<path class="cls-1" stroke="white" d="M13,22.5H1.5V3.41H5.32A1.92,1.92,0,0,0,7.23,5.32h3.82a1.83,1.83,0,0,0,1.34-.57A1.87,1.87,0,0,0,13,3.41h3.82V8.18"/>
<path class="cls-1" stroke="white" d="M20.59,15.39V11.05H16.77v4.34a3.82,3.82,0,1,0,3.82,0Z"/>
<line class="cls-1" stroke="white" x1="22.5" y1="11.05" x2="14.86" y2="11.05"/>
<line class="cls-1" stroke="white" x1="14.86" y1="17.73" x2="19.64" y2="17.73"/>
<path class="cls-1" stroke="white" d="M12.9,3a1.87,1.87,0,0,1-.51,1.79,1.83,1.83,0,0,1-1.34.57H7.32A2,2,0,0,1,5.37,3.86,1.92,1.92,0,0,1,7.23,1.5H11A2,2,0,0,1,12.9,3Z"/>
<line class="cls-1" stroke="red" x1="5.32" y1="9.14" x2="12.95" y2="9.14"/>
<line class="cls-1" stroke="white" x1="5.32" y1="12.95" x2="12.95" y2="12.95"/>
<line class="cls-1" stroke="white" x1="5.32" y1="16.77" x2="12.95" y2="16.77"/></svg>